<?xml version="1.0" ?><svg id="Layer_1" style="enable-background:new 0 0 620.523 496.671;" version="1.1" viewBox="0 0 620.523 496.671" xml:space="preserve" xmlns="http://www.w3.org/2000/svg" xmlns:xlink="http://www.w3.org/1999/xlink"><g><rect height="5.002" width="32.166" x="249.346" y="337.131"/><polygon points="518.25,110.81 518.25,65.069 585.574,25.064 620.523,4.299 617.969,0.001 585.574,19.249 515.066,61.144    362.742,61.144 105.455,61.144 2.557,0 0,4.298 102.271,65.068 102.271,338.211 0.002,398.979 2.555,403.277 105.455,342.133    141.012,342.133 141.012,337.131 107.271,337.131 107.271,66.146 362.742,66.146 513.248,66.146 513.248,110.81 513.25,337.131    493.846,337.131 493.846,342.133 515.066,342.133 617.969,403.276 620.523,398.978 518.25,338.208  "/><path d="M371.273,289.654c0-12.427-10.072-22.5-22.5-22.5c-12.426,0-22.5,10.073-22.5,22.5c0,7.69,3.859,14.477,9.746,18.534   h25.508C367.412,304.131,371.273,297.345,371.273,289.654z"/><path d="M230.699,245.754c4.356-0.522,10.465-1.468,17.59-3.169c14.113-3.388,32.275-9.711,48.545-21.981   c3.523-2.664,4.223-7.68,1.561-11.204c-2.664-3.525-7.68-4.225-11.205-1.562c-13.73,10.396-29.902,16.157-42.623,19.186   c-6.354,1.52-11.83,2.367-15.672,2.833c-1.92,0.231-3.432,0.368-4.439,0.445c-0.465,0.035-0.809,0.057-1.051,0.071   c-0.145-0.008-0.287-0.021-0.434-0.021h-37.189c-0.314-0.039-0.801-0.085-1.439-0.085c-2.842-0.077-9.385,1.105-15.197,7.187   c-5.094,5.276-9.52,13.597-12.307,26.898c-0.406,1.935-0.777,3.975-1.111,6.127c-0.002,0.017-0.002,0.033-0.004,0.05   c-1.217,7.908-1.928,17.366-1.928,28.764c0,5.854,0.186,12.224,0.594,19.159c0.248,4.251,3.773,7.531,7.978,7.531   c0.158,0,0.316-0.004,0.477-0.014c4.41-0.258,7.775-4.045,7.518-8.455c-0.393-6.651-0.568-12.709-0.566-18.222   c-0.002-10.728,0.672-19.392,1.738-26.323c0.004-0.017,0.008-0.032,0.01-0.049c0.314-2.043,0.664-3.918,1.039-5.663   c1.176-5.487,2.604-9.564,4.027-12.554v30.814l-4.57,3.096c-0.059,1.218-0.105,2.46-0.143,3.721l4.289-2.905l17.943,26.494   l-33.531,22.711l-17.945-26.494l9.227-6.249c-0.027-1.208-0.047-2.402-0.059-3.583l-13.334,9.031l11.66,17.217l9.65,14.246   l16.813-11.388v73.06c0,6.83,5.537,12.363,12.363,12.363c6.828,0,12.365-5.533,12.365-12.363v-90.271h4.635v90.271   c0,6.83,5.535,12.363,12.361,12.363c6.828,0,12.365-5.533,12.365-12.363V245.754z M199.854,238.535h3.801h3.799l1.9,7.5   l-0.289,0.456c-1.566,1.306-3.484,1.96-5.412,1.962c-1.928-0.002-3.844-0.655-5.408-1.958l-0.291-0.46L199.854,238.535z    M203.654,303.035l-9.5-12l5.471-40.321c1.297,0.486,2.662,0.74,4.027,0.739h0.002c0,0,0.004,0,0.006,0   c1.363,0,2.725-0.254,4.02-0.74l5.473,40.322L203.654,303.035z"/><circle cx="203.654" cy="202.153" r="22.5"/><rect height="19.211" transform="matrix(0.8201 -0.5723 0.5723 0.8201 -143.8263 157.5656)" width="1.999" x="177.64" y="297.883"/><path d="M177.961,319.54l-5.912-8.463c0.051,1.234,0.109,2.481,0.174,3.742l4.098,5.867L177.961,319.54z"/><path d="M391.09,255.138h84.322v-2.502V128.643H396.09h-5h-79.322v126.494h79.322V255.138z M470.412,133.644v116.491H396.09   V133.644H470.412z M316.768,250.136V133.645h74.32l0.002,116.491H316.768z"/><rect height="2.5" transform="matrix(0.7071 -0.7071 0.7071 0.7071 -7.8424 362.1763)" width="66.499" x="400.002" y="189.304"/><rect height="2.5" transform="matrix(0.7071 -0.7071 0.7071 0.7071 -5.388 356.2579)" width="31.75" x="411.455" y="183.383"/><rect height="2.5" transform="matrix(0.7071 -0.7071 0.7071 0.7071 -10.2989 368.0895)" width="31.751" x="423.298" y="195.227"/><rect height="2.5" transform="matrix(0.7073 -0.7069 0.7069 0.7073 -31.209 305.7365)" width="66.501" x="320.335" y="189.304"/><rect height="2.5" transform="matrix(0.7071 -0.7071 0.7071 0.7071 -28.7235 299.9232)" width="31.749" x="331.789" y="183.383"/><rect height="2.5" transform="matrix(0.7071 -0.7071 0.7071 0.7071 -33.6358 311.7459)" width="31.751" x="343.632" y="195.227"/><path d="M462.959,300.849c2.691-11.563-4.498-23.117-16.059-25.811c-11.563-2.691-23.117,4.5-25.811,16.061   c-2.242,9.625,2.369,19.24,10.645,23.747c2.979-0.471,6.572-0.869,10.285-0.882c3.715,0.013,7.31,0.41,10.289,0.881   C457.502,312.013,461.512,307.064,462.959,300.849z"/><path d="M416.123,339.917l-17.432,89.719h21.666v56.529c0,5.523,4.477,10,10,10c5.521,0,10-4.477,10-10v-56.529h3.334v56.529   c0,5.523,4.477,10,10,10c5.52,0,10-4.477,10-10v-56.529h21.668l-17.428-89.693c0.158,0.195,0.314,0.375,0.475,0.579   c6.717,8.586,14.77,25.152,18.883,56.378c0.469,3.558,3.734,6.063,7.293,5.594c3.559-0.469,6.064-3.734,5.596-7.293   c-4.609-34.939-14.096-54.12-23.236-64.773c-8.435-9.876-16.553-12.015-18.721-12.362c-1.863-0.461-8.73-2.076-16.195-2.1   c-7.467,0.023-14.334,1.639-16.197,2.1c-2.168,0.348-10.283,2.486-18.719,12.362c-3.627,4.226-7.305,9.8-10.713,17.159   c-2.045-11.559-5.254-19.589-9.051-25.39c-3.285-4.987-7.129-8.184-10.678-9.957c-3.549-1.789-6.662-2.144-8.436-2.137   c-0.641,0-1.127,0.043-1.443,0.084h-36.027c-0.314-0.039-0.803-0.085-1.449-0.085c-1.773-0.005-4.889,0.351-8.436,2.139   c-5.379,2.667-11.178,8.502-15.234,18.84c-4.107,10.38-6.865,25.386-6.879,48.044c0,5.857,0.188,12.227,0.594,19.16   c0.25,4.251,3.777,7.533,7.98,7.533c0.158,0,0.316-0.005,0.475-0.014c4.41-0.259,7.777-4.045,7.52-8.455   c-0.391-6.652-0.568-12.71-0.568-18.225c-0.035-24.216,3.496-37.82,6.965-44.919v150.103c0,6.83,5.537,12.363,12.363,12.363   c6.828,0,12.365-5.533,12.365-12.363v-90.272h4.635v90.272c0,6.83,5.537,12.363,12.363,12.363c6.828,0,12.365-5.533,12.365-12.363   V334.252c0.592,1.216,1.19,2.61,1.779,4.237c2.82,7.811,5.19,20.63,5.182,40.638c0,5.514-0.178,11.571-0.566,18.225   c-0.256,4.41,3.111,8.194,7.521,8.451c0.16,0.009,0.318,0.014,0.475,0.014c4.205,0,7.73-3.282,7.978-7.533   c0.283-4.853,0.453-9.411,0.533-13.728c0.629-3.337,1.303-6.472,2.018-9.408c2.168-8.922,4.688-16.057,7.289-21.746   C410.742,347.474,413.541,343.107,416.123,339.917z"/></g></svg>